<svg fill="#220033" xmlns="http://www.w3.org/2000/svg" xmlns:xlink="http://www.w3.org/1999/xlink" version="1.1" x="0px" y="0px" viewBox="0 0 566.93 566.93" enable-background="new 0 0 566.93 566.93" xml:space="preserve"><g><g><polygon points="428.654,385.902 282.298,473.928 282.298,339.842 333.638,398.498 432.396,339.842   "></polygon><polygon points="259.418,473.928 151.124,387.414 151.124,360.707 205.271,408.801 259.418,343.682   "></polygon><path d="M151.124,262.489c0,5.953,102.261,62.484,102.261,62.484l-57.115,35.734l-92.75-62.498L151.124,262.489z"></path><polygon points="301.504,333.396 403.863,276.177 484.743,297.828 356.855,360.707   "></polygon></g><g><g><path d="M262.06,96.14c-2.39-2.329-6.285-6.12-8.688-8.43l-12.706-12.355c-2.402-2.31-6.42-3.515-8.951-2.679     c-2.557,0.854-6.089,2.016-7.871,2.624c-1.781,0.59-2.771,2.519-2.181,4.283c0.59,1.763,1.923,5.788,2.974,8.952l10.678,32.146     c1.058,3.152,2.587,7.76,3.398,10.199c0.823,2.464,0.338,6.015-1.075,7.901c-1.42,1.898-4.209,5.616-6.212,8.27l-13.179,17.565     c-1.997,2.661-4.805,6.384-6.242,8.289c-1.426,1.904-4.946,2.765-7.791,1.947c-2.845-0.829-7.778-2.273-10.973-3.207     l-19.459-5.689c-3.194-0.928-7.562-2.212-9.713-2.845c-2.145-0.639-4.639-3.391-5.548-6.144     c-0.909-2.728-2.519-7.551-3.576-10.722l-9.997-30.075c-1.05-3.158-2.463-7.416-3.158-9.462c-0.67-2.064-2.304-3.379-3.625-2.937     c-1.327,0.436-3.828,1.271-5.554,1.849c-1.739,0.578-3.576,3.742-4.086,7.035l-2.574,16.65c-0.516,3.299-1.358,8.669-1.868,11.95     l-3.22,20.742c-0.522,3.287,0.866,8.024,3.06,10.512l12.411,14.033c2.2,2.482,5.794,6.58,8.006,9.074l7.146,8.098     c2.199,2.507,6.599,5.364,9.769,6.383l9.738,3.103c3.183,1.014,8.35,2.672,11.526,3.68l7.846,2.507     c3.171,1.02,7.575,1.247,9.8,0.491c2.218-0.731,4.73,1.309,5.579,4.522l13.511,51.585l35.346,18.316l31.851,16.551     l-17.817-47.695l-21.351-52.575c-1.247-3.091-0.633-6.157,1.376-6.826c2.003-0.657,5.211-3.447,7.103-6.193l5.941-8.509     c1.898-2.722,5.014-7.201,6.899-9.941l4.228-6.058c1.917-2.74,3.582-7.698,3.717-11.016l0.67-15.968     c0.136-3.336,0.369-8.761,0.51-12.098l0.646-15.741c0.129-3.324-1.702-7.932-4.104-10.254L262.06,96.14z"></path></g></g><path d="M400.281,68.86l-64.598,97.376l-34.173,109.947l7.108,22.75l37.878-126.424l27.881,2.439l-32.87,118.604l37.509-17.37   l27.059-88.406L400.281,68.86z M360.683,141.138l34.751-56.347l-0.571,62.491L360.683,141.138z"></path></g></svg>